<?xml version="1.0" encoding="utf-8"?>
<!-- Generator: Adobe Illustrator 25.4.1, SVG Export Plug-In . SVG Version: 6.00 Build 0)  -->
<svg version="1.1" xmlns="http://www.w3.org/2000/svg" xmlns:xlink="http://www.w3.org/1999/xlink" x="0px" y="0px"
	 viewBox="0 0 500 500" style="enable-background:new 0 0 500 500;" xml:space="preserve">
<style type="text/css">
	.st0{fill:#FFFFFF;}
	.st1{fill:#B975F9;}
	.st2{fill:#1A1A1A;}
	.st3{fill:#E8A034;}
	.st4{fill:#3C4145;}
	.st5{fill:#E8C48E;}
	.st6{fill:none;stroke:#3C4145;stroke-width:1.7508;stroke-miterlimit:10;}
	.st7{fill:#E8A034;stroke:#3D3D3D;stroke-width:2.3344;stroke-miterlimit:10;}
	.st8{fill:#E8D7BE;}
	.st9{fill:#E8D7BE;stroke:#3D3D3D;stroke-width:2.3344;stroke-miterlimit:10;}
	.st10{font-family:'BungeeLayers-Regular';}
	.st11{font-size:34.9044px;}
	.st12{letter-spacing:1;}
	.st13{fill:none;stroke:#E8D7BE;stroke-width:3.0452;stroke-linecap:round;stroke-linejoin:round;stroke-miterlimit:10;}
	.st14{fill:none;stroke:#3C4145;stroke-width:3.0452;stroke-linecap:round;stroke-linejoin:round;stroke-miterlimit:10;}
	.st15{fill:#E8A034;stroke:#3D3D3D;stroke-width:3.9982;stroke-miterlimit:10;}
	.st16{fill:none;stroke:#3D3D3D;stroke-width:3.9982;stroke-linecap:round;stroke-linejoin:round;stroke-miterlimit:10;}
	.st17{fill:#FFFCFF;}
	.st18{font-size:19.4549px;}
	.st19{fill:none;stroke:#E8A034;stroke-width:2.3266;stroke-miterlimit:10;}
	.st20{fill:none;stroke:#E8A034;stroke-width:2.0301;stroke-miterlimit:10;}
</style>
<g id="BACKGROUND">
	<rect class="st0" width="500" height="500"/>
	<rect x="-0.5" y="-1" class="st1" width="501.5" height="501.5"/>
</g>
<g id="OBJECTS">
	<g>
		<rect x="56.53" y="184.57" class="st2" width="20.43" height="8.75"/>
		<circle class="st3" cx="55.95" cy="189.83" r="7.59"/>
	</g>
	<g>
		<path class="st2" d="M197.44,216.09H85.46c-6.6,0-12-5.4-12-12V92.11c0-6.6,5.4-12,12-12h111.98c6.6,0,12,5.4,12,12v111.98
			C209.44,210.69,204.04,216.09,197.44,216.09z"/>
		<path class="st4" d="M187.51,206.17H95.38c-6.6,0-12-5.4-12-12v-92.13c0-6.6,5.4-12,12-12h92.13c6.6,0,12,5.4,12,12v92.13
			C199.51,200.77,194.11,206.17,187.51,206.17z"/>
		<g>
			<rect x="55.95" y="157.73" class="st2" width="20.43" height="8.75"/>
			<circle class="st3" cx="55.37" cy="162.98" r="7.59"/>
		</g>
		<g>
			<rect x="55.37" y="132.63" class="st2" width="20.43" height="8.75"/>
			<circle class="st3" cx="54.78" cy="137.89" r="7.59"/>
		</g>
		<g>
			<rect x="54.2" y="108.71" class="st2" width="20.43" height="8.75"/>
			<circle class="st3" cx="53.62" cy="113.96" r="7.59"/>
		</g>
		<g>
			<rect x="54.78" y="85.95" class="st2" width="20.43" height="8.75"/>
			
				<ellipse transform="matrix(0.1606 -0.987 0.987 0.1606 -44.5175 130.0527)" class="st3" cx="54.2" cy="91.2" rx="7.59" ry="7.59"/>
		</g>
		<g>
			
				<rect x="205.93" y="185.74" transform="matrix(-1 -1.224647e-16 1.224647e-16 -1 432.2937 380.2344)" class="st2" width="20.43" height="8.75"/>
			<circle class="st3" cx="226.94" cy="190.99" r="7.59"/>
		</g>
		<g>
			
				<rect x="206.52" y="158.9" transform="matrix(-1 -1.224647e-16 1.224647e-16 -1 433.4609 326.5441)" class="st2" width="20.43" height="8.75"/>
			<circle class="st3" cx="227.53" cy="164.15" r="7.59"/>
		</g>
		<g>
			
				<rect x="207.1" y="133.8" transform="matrix(-1 -1.224647e-16 1.224647e-16 -1 434.6281 276.3553)" class="st2" width="20.43" height="8.75"/>
			<circle class="st3" cx="228.11" cy="139.05" r="7.59"/>
		</g>
		<g>
			
				<rect x="208.27" y="109.87" transform="matrix(-1 -1.224647e-16 1.224647e-16 -1 436.9624 228.5008)" class="st2" width="20.43" height="8.75"/>
			<circle class="st3" cx="229.28" cy="115.13" r="7.59"/>
		</g>
		<g>
			
				<rect x="207.68" y="87.11" transform="matrix(-1 -1.224647e-16 1.224647e-16 -1 435.7953 182.9807)" class="st2" width="20.43" height="8.75"/>
			
				<ellipse transform="matrix(0.773 -0.6344 0.6344 0.773 -6.688 166.0385)" class="st3" cx="228.69" cy="92.37" rx="7.59" ry="7.59"/>
		</g>
		<g>
			
				<rect x="179.67" y="68.44" transform="matrix(-1.836970e-16 1 -1 -1.836970e-16 262.7007 -117.0698)" class="st2" width="20.43" height="8.75"/>
			<path class="st3" d="M190.76,69.61c4.19,0,7.59-3.4,7.59-7.59s-3.4-7.59-7.59-7.59c-4.19,0-7.59,3.4-7.59,7.59
				S186.57,69.61,190.76,69.61z"/>
		</g>
		<g>
			
				<rect x="152.83" y="67.85" transform="matrix(-1.836970e-16 1 -1 -1.836970e-16 235.2719 -90.8082)" class="st2" width="20.43" height="8.75"/>
			
				<ellipse transform="matrix(0.7071 -0.7071 0.7071 0.7071 4.5683 133.8998)" class="st3" cx="163.92" cy="61.44" rx="7.59" ry="7.59"/>
		</g>
		<g>
			
				<rect x="127.73" y="67.27" transform="matrix(-1.836970e-16 1 -1 -1.836970e-16 209.5939 -66.2974)" class="st2" width="20.43" height="8.75"/>
			
				<ellipse transform="matrix(0.7071 -0.7071 0.7071 0.7071 -2.369 115.9844)" class="st3" cx="138.82" cy="60.85" rx="7.59" ry="7.59"/>
		</g>
		<g>
			
				<rect x="103.81" y="66.1" transform="matrix(-1.836970e-16 1 -1 -1.836970e-16 184.4995 -43.5373)" class="st2" width="20.43" height="8.75"/>
			
				<ellipse transform="matrix(0.7071 -0.7071 0.7071 0.7071 -8.5518 98.7234)" class="st3" cx="114.89" cy="59.68" rx="7.59" ry="7.59"/>
		</g>
		<g>
			
				<rect x="81.05" y="66.69" transform="matrix(-1.836970e-16 1 -1 -1.836970e-16 162.3231 -20.1938)" class="st2" width="20.43" height="8.75"/>
			<circle class="st3" cx="92.13" cy="60.27" r="7.59"/>
		</g>
		<g>
			
				<rect x="83.38" y="217.84" transform="matrix(6.123234e-17 -1 1 6.123234e-17 -128.6219 315.8074)" class="st2" width="20.43" height="8.75"/>
			<circle class="st3" cx="92.72" cy="233.01" r="7.59"/>
		</g>
		<g>
			
				<rect x="110.23" y="218.42" transform="matrix(6.123234e-17 -1 1 6.123234e-17 -102.3603 343.2362)" class="st2" width="20.43" height="8.75"/>
			<circle class="st3" cx="119.56" cy="233.59" r="7.59"/>
		</g>
		<g>
			
				<rect x="135.32" y="219" transform="matrix(6.123234e-17 -1 1 6.123234e-17 -77.8495 368.9142)" class="st2" width="20.43" height="8.75"/>
			<circle class="st3" cx="144.66" cy="234.18" r="7.59"/>
		</g>
		<g>
			
				<rect x="159.25" y="220.17" transform="matrix(6.123234e-17 -1 1 6.123234e-17 -55.0895 394.0086)" class="st2" width="20.43" height="8.75"/>
			<circle class="st3" cx="168.58" cy="235.35" r="7.59"/>
		</g>
		<g>
			
				<rect x="182.01" y="219.59" transform="matrix(6.123234e-17 -1 1 6.123234e-17 -31.7458 416.1851)" class="st2" width="20.43" height="8.75"/>
			
				<ellipse transform="matrix(0.9871 -0.1598 0.1598 0.9871 -35.0571 33.5948)" class="st3" cx="191.34" cy="234.76" rx="7.59" ry="7.59"/>
		</g>
	</g>
	<g>
		<path class="st2" d="M195.41,413.01H83.43c-6.6,0-12-5.4-12-12V289.04c0-6.6,5.4-12,12-12h111.98c6.6,0,12,5.4,12,12v111.98
			C207.41,407.61,202.01,413.01,195.41,413.01z"/>
		<path class="st3" d="M185.48,403.09H93.35c-6.6,0-12-5.4-12-12v-92.13c0-6.6,5.4-12,12-12h92.13c6.6,0,12,5.4,12,12v92.13
			C197.48,397.69,192.08,403.09,185.48,403.09z"/>
		<g>
			<rect x="53.92" y="354.65" class="st2" width="20.43" height="8.75"/>
			
				<ellipse transform="matrix(0.7071 -0.7071 0.7071 0.7071 -238.869 143.129)" class="st5" cx="53.34" cy="359.9" rx="7.59" ry="7.59"/>
		</g>
		<g>
			<rect x="53.34" y="329.56" class="st2" width="20.43" height="8.75"/>
			
				<ellipse transform="matrix(0.2305 -0.9731 0.9731 0.2305 -285.2006 308.9691)" class="st5" cx="52.75" cy="334.81" rx="7.59" ry="7.59"/>
		</g>
		<g>
			<rect x="52.17" y="305.63" class="st2" width="20.43" height="8.75"/>
			
				<ellipse transform="matrix(0.9071 -0.421 0.421 0.9071 -126.0789 50.6055)" class="st5" cx="51.59" cy="310.88" rx="7.59" ry="7.59"/>
		</g>
		<g>
			<rect x="52.75" y="282.87" class="st2" width="20.43" height="8.75"/>
			<circle class="st5" cx="52.17" cy="288.12" r="7.59"/>
		</g>
		<g>
			
				<rect x="203.9" y="382.66" transform="matrix(-1 -1.224647e-16 1.224647e-16 -1 428.2334 774.0837)" class="st2" width="20.43" height="8.75"/>
			<circle class="st5" cx="224.91" cy="387.92" r="7.59"/>
		</g>
		<g>
			
				<rect x="204.49" y="355.82" transform="matrix(-1 -1.224647e-16 1.224647e-16 -1 429.4005 720.3933)" class="st2" width="20.43" height="8.75"/>
			
				<ellipse transform="matrix(0.407 -0.9134 0.9134 0.407 -196.0933 420.0947)" class="st5" cx="225.5" cy="361.07" rx="7.59" ry="7.59"/>
		</g>
		<g>
			
				<rect x="205.07" y="330.73" transform="matrix(-1 -1.224647e-16 1.224647e-16 -1 430.5677 670.2045)" class="st2" width="20.43" height="8.75"/>
			
				<ellipse transform="matrix(0.325 -0.9457 0.9457 0.325 -165.1348 440.5911)" class="st5" cx="226.08" cy="335.98" rx="7.59" ry="7.59"/>
		</g>
		<g>
			
				<rect x="206.24" y="306.8" transform="matrix(-1 -1.224647e-16 1.224647e-16 -1 432.9021 622.3501)" class="st2" width="20.43" height="8.75"/>
			<circle class="st5" cx="227.25" cy="312.05" r="7.59"/>
		</g>
		<g>
			
				<rect x="205.65" y="284.04" transform="matrix(-1 -1.224647e-16 1.224647e-16 -1 431.7349 576.83)" class="st2" width="20.43" height="8.75"/>
			<circle class="st5" cx="226.66" cy="289.29" r="7.59"/>
		</g>
		<g>
			
				<rect x="177.64" y="265.36" transform="matrix(-1.836970e-16 1 -1 -1.836970e-16 457.5952 81.885)" class="st2" width="20.43" height="8.75"/>
			<circle class="st5" cx="188.73" cy="258.94" r="7.59"/>
		</g>
		<g>
			
				<rect x="150.8" y="264.78" transform="matrix(-1.836970e-16 1 -1 -1.836970e-16 430.1664 108.1466)" class="st2" width="20.43" height="8.75"/>
			
				<ellipse transform="matrix(0.9995 -0.0326 0.0326 0.9995 -8.3458 5.421)" class="st5" cx="161.89" cy="258.36" rx="7.59" ry="7.59"/>
		</g>
		<g>
			
				<rect x="125.7" y="264.2" transform="matrix(-1.836970e-16 1 -1 -1.836970e-16 404.4884 132.6574)" class="st2" width="20.43" height="8.75"/>
			<circle class="st5" cx="136.79" cy="257.78" r="7.59"/>
		</g>
		<g>
			
				<rect x="101.78" y="263.03" transform="matrix(-1.836970e-16 1 -1 -1.836970e-16 379.394 155.4174)" class="st2" width="20.43" height="8.75"/>
			<circle class="st5" cx="112.86" cy="256.61" r="7.59"/>
		</g>
		<g>
			
				<rect x="79.02" y="263.61" transform="matrix(-1.836970e-16 1 -1 -1.836970e-16 357.2175 178.7611)" class="st2" width="20.43" height="8.75"/>
			
				<ellipse transform="matrix(0.9889 -0.1484 0.1484 0.9889 -37.1613 16.2147)" class="st5" cx="90.1" cy="257.19" rx="7.59" ry="7.59"/>
		</g>
		<g>
			
				<rect x="81.35" y="414.76" transform="matrix(6.123234e-17 -1 1 6.123234e-17 -327.5767 510.702)" class="st2" width="20.43" height="8.75"/>
			
				<ellipse transform="matrix(0.9734 -0.229 0.229 0.9734 -96.0496 32.1943)" class="st5" cx="90.69" cy="429.94" rx="7.59" ry="7.59"/>
		</g>
		<g>
			
				<rect x="108.19" y="415.35" transform="matrix(6.123234e-17 -1 1 6.123234e-17 -301.3151 538.1307)" class="st2" width="20.43" height="8.75"/>
			<circle class="st5" cx="117.53" cy="430.52" r="7.59"/>
		</g>
		<g>
			
				<rect x="133.29" y="415.93" transform="matrix(6.123234e-17 -1 1 6.123234e-17 -276.8043 563.8087)" class="st2" width="20.43" height="8.75"/>
			<circle class="st5" cx="142.63" cy="431.1" r="7.59"/>
		</g>
		<g>
			
				<rect x="157.22" y="417.1" transform="matrix(6.123234e-17 -1 1 6.123234e-17 -254.0442 588.9031)" class="st2" width="20.43" height="8.75"/>
			
				<ellipse transform="matrix(0.9897 -0.1429 0.1429 0.9897 -60.0777 28.2456)" class="st5" cx="166.55" cy="432.27" rx="7.59" ry="7.59"/>
		</g>
		<g>
			
				<rect x="179.98" y="416.51" transform="matrix(6.123234e-17 -1 1 6.123234e-17 -230.7006 611.0795)" class="st2" width="20.43" height="8.75"/>
			<circle class="st5" cx="189.31" cy="431.69" r="7.59"/>
		</g>
	</g>
	<g>
		<path class="st3" d="M139.4,188.65v-81.5c-8.27,0-21.6,3.82-17.94,14.71c-7.98,0.68-15.33,3.14-17.63,11.93
			c-1.03,3.93-0.79,8.28,0.54,12.08c1.6,4.56,1.23,2.69-1.54,6.26c-12.09,15.59-1.94,36.95,14.4,41.79c2.43,0.72,8.74,0.87,11.09,0
			c0.53-0.19,4.84-2.76,4.16-3.05C134.58,191.79,138.59,191.92,139.4,188.65z"/>
		<polyline class="st6" points="100.3,139.64 120.73,139.64 120.73,177.57 132.99,177.57 		"/>
		<polyline class="st6" points="104.1,128.84 132.11,128.84 132.11,114.25 		"/>
		<polyline class="st6" points="97.39,167.45 111.1,167.45 111.1,184.86 121.02,184.86 		"/>
		<polyline class="st6" points="97.09,159.19 113.43,159.19 113.43,147.52 		"/>
		<path class="st7" d="M126.27,139.93c0,1.93-1.57,3.5-3.5,3.5c-1.93,0-3.5-1.57-3.5-3.5c0-1.93,1.57-3.5,3.5-3.5
			C124.71,136.43,126.27,137.99,126.27,139.93z"/>
		<path class="st7" d="M135.9,177.57c0,1.93-1.57,3.5-3.5,3.5c-1.93,0-3.5-1.57-3.5-3.5c0-1.93,1.57-3.5,3.5-3.5
			C134.34,174.07,135.9,175.64,135.9,177.57z"/>
		<path class="st7" d="M117.23,148.97c0,1.93-1.57,3.5-3.5,3.5c-1.93,0-3.5-1.57-3.5-3.5c0-1.93,1.57-3.5,3.5-3.5
			C115.66,145.47,117.23,147.04,117.23,148.97z"/>
		<path class="st7" d="M124.81,162.4c0,1.93-1.57,3.5-3.5,3.5c-1.93,0-3.5-1.57-3.5-3.5c0-1.93,1.57-3.5,3.5-3.5
			C123.25,158.9,124.81,160.46,124.81,162.4z"/>
		<path class="st7" d="M124.23,183.99c0,1.93-1.57,3.5-3.5,3.5c-1.93,0-3.5-1.57-3.5-3.5c0-1.93,1.57-3.5,3.5-3.5
			C122.66,180.49,124.23,182.06,124.23,183.99z"/>
		<path class="st7" d="M134.15,129.13c0,1.93-1.57,3.5-3.5,3.5c-1.93,0-3.5-1.57-3.5-3.5c0-1.93,1.57-3.5,3.5-3.5
			C132.58,125.63,134.15,127.2,134.15,129.13z"/>
		<path class="st7" d="M135.9,113.38c0,1.93-1.57,3.5-3.5,3.5c-1.93,0-3.5-1.57-3.5-3.5c0-1.93,1.57-3.5,3.5-3.5
			C134.34,109.87,135.9,111.44,135.9,113.38z"/>
	</g>
	<g>
		<path class="st8" d="M144.95,189.23v-81.5c8.27,0,21.6,3.82,17.94,14.71c7.98,0.68,15.33,3.14,17.63,11.93
			c1.03,3.93,0.8,8.28-0.54,12.08c-1.6,4.56-1.23,2.69,1.54,6.26c12.09,15.59,1.94,36.95-14.4,41.79c-2.43,0.72-8.74,0.87-11.09,0
			c-0.53-0.19-4.84-2.76-4.16-3.05C149.77,192.37,145.76,192.51,144.95,189.23z"/>
		<polyline class="st6" points="184.05,140.22 163.62,140.22 163.62,178.15 151.37,178.15 		"/>
		<polyline class="st6" points="180.26,129.42 152.24,129.42 152.24,114.83 		"/>
		<polyline class="st6" points="186.97,168.04 173.25,168.04 173.25,185.45 163.33,185.45 		"/>
		<polyline class="st6" points="187.26,159.77 170.92,159.77 170.92,148.1 		"/>
		<path class="st9" d="M158.08,140.51c0,1.93,1.57,3.5,3.5,3.5c1.93,0,3.5-1.57,3.5-3.5c0-1.93-1.57-3.5-3.5-3.5
			C159.65,137.01,158.08,138.58,158.08,140.51z"/>
		<path class="st9" d="M148.45,178.15c0,1.93,1.57,3.5,3.5,3.5c1.93,0,3.5-1.57,3.5-3.5c0-1.93-1.57-3.5-3.5-3.5
			C150.02,174.65,148.45,176.22,148.45,178.15z"/>
		<path class="st9" d="M167.13,149.56c0,1.93,1.57,3.5,3.5,3.5c1.93,0,3.5-1.57,3.5-3.5c0-1.93-1.57-3.5-3.5-3.5
			C168.69,146.06,167.13,147.62,167.13,149.56z"/>
		<path class="st9" d="M159.54,162.98c0,1.93,1.57,3.5,3.5,3.5c1.93,0,3.5-1.57,3.5-3.5c0-1.93-1.57-3.5-3.5-3.5
			C161.11,159.48,159.54,161.05,159.54,162.98z"/>
		<path class="st9" d="M160.12,184.57c0,1.93,1.57,3.5,3.5,3.5c1.93,0,3.5-1.57,3.5-3.5c0-1.93-1.57-3.5-3.5-3.5
			C161.69,181.07,160.12,182.64,160.12,184.57z"/>
		<path class="st9" d="M150.2,129.72c0,1.93,1.57,3.5,3.5,3.5c1.93,0,3.5-1.57,3.5-3.5c0-1.93-1.57-3.5-3.5-3.5
			C151.77,126.21,150.2,127.78,150.2,129.72z"/>
		<path class="st9" d="M148.45,113.96c0,1.93,1.57,3.5,3.5,3.5c1.93,0,3.5-1.57,3.5-3.5c0-1.93-1.57-3.5-3.5-3.5
			C150.02,110.46,148.45,112.02,148.45,113.96z"/>
	</g>
	<g>
		<g>
			<rect x="266.66" y="183.56" class="st2" width="20.43" height="8.75"/>
			<circle class="st3" cx="266.07" cy="188.81" r="7.59"/>
		</g>
		<g>
			<path class="st2" d="M407.56,215.07H295.58c-6.6,0-12-5.4-12-12V91.1c0-6.6,5.4-12,12-12h111.98c6.6,0,12,5.4,12,12v111.98
				C419.56,209.67,414.16,215.07,407.56,215.07z"/>
			<path class="st4" d="M397.64,205.15H305.5c-6.6,0-12-5.4-12-12v-92.13c0-6.6,5.4-12,12-12h92.13c6.6,0,12,5.4,12,12v92.13
				C409.64,199.75,404.24,205.15,397.64,205.15z"/>
			<g>
				<rect x="266.07" y="156.71" class="st2" width="20.43" height="8.75"/>
				
					<ellipse transform="matrix(0.1606 -0.987 0.987 0.1606 62.9971 398.0034)" class="st3" cx="265.49" cy="161.97" rx="7.59" ry="7.59"/>
			</g>
			<g>
				<rect x="265.49" y="131.62" class="st2" width="20.43" height="8.75"/>
				
					<ellipse transform="matrix(0.1606 -0.987 0.987 0.1606 87.276 376.3622)" class="st3" cx="264.9" cy="136.87" rx="7.59" ry="7.59"/>
			</g>
			<g>
				<rect x="264.32" y="107.69" class="st2" width="20.43" height="8.75"/>
				
					<ellipse transform="matrix(0.229 -0.9734 0.9734 0.229 93.3975 343.8071)" class="st3" cx="263.74" cy="112.94" rx="7.59" ry="7.59"/>
			</g>
			<g>
				<rect x="264.9" y="84.93" class="st2" width="20.43" height="8.75"/>
				<circle class="st3" cx="264.32" cy="90.18" r="7.59"/>
			</g>
			<g>
				
					<rect x="416.05" y="184.73" transform="matrix(-1 -1.224647e-16 1.224647e-16 -1 852.5349 378.2043)" class="st2" width="20.43" height="8.75"/>
				<circle class="st3" cx="437.06" cy="189.98" r="7.59"/>
			</g>
			<g>
				
					<rect x="416.64" y="157.88" transform="matrix(-1 -1.224647e-16 1.224647e-16 -1 853.7021 324.5139)" class="st2" width="20.43" height="8.75"/>
				
					<ellipse transform="matrix(0.3845 -0.9231 0.9231 0.3845 118.7955 504.4253)" class="st3" cx="437.65" cy="163.13" rx="7.59" ry="7.59"/>
			</g>
			<g>
				
					<rect x="417.22" y="132.79" transform="matrix(-1 -1.224647e-16 1.224647e-16 -1 854.8693 274.3251)" class="st2" width="20.43" height="8.75"/>
				
					<ellipse transform="matrix(0.9734 -0.229 0.229 0.9734 -19.9656 104.0267)" class="st3" cx="438.23" cy="138.04" rx="7.59" ry="7.59"/>
			</g>
			<g>
				
					<rect x="418.39" y="108.86" transform="matrix(-1 -1.224647e-16 1.224647e-16 -1 857.2037 226.4707)" class="st2" width="20.43" height="8.75"/>
				<circle class="st3" cx="439.4" cy="114.11" r="7.59"/>
			</g>
			<g>
				
					<rect x="417.81" y="86.1" transform="matrix(-1 -1.224647e-16 1.224647e-16 -1 856.0365 180.9506)" class="st2" width="20.43" height="8.75"/>
				<circle class="st3" cx="438.81" cy="91.35" r="7.59"/>
			</g>
			<g>
				
					<rect x="389.79" y="67.42" transform="matrix(-1.836970e-16 1 -1 -1.836970e-16 471.8062 -328.2055)" class="st2" width="20.43" height="8.75"/>
				
					<ellipse transform="matrix(0.7071 -0.7071 0.7071 0.7071 74.2791 301.3335)" class="st3" cx="400.88" cy="61" rx="7.59" ry="7.59"/>
			</g>
			<g>
				
					<rect x="362.95" y="66.84" transform="matrix(-1.836970e-16 1 -1 -1.836970e-16 444.3775 -301.9439)" class="st2" width="20.43" height="8.75"/>
				<circle class="st3" cx="374.04" cy="60.42" r="7.59"/>
			</g>
			<g>
				
					<rect x="337.85" y="66.26" transform="matrix(-1.836970e-16 1 -1 -1.836970e-16 418.6995 -277.4331)" class="st2" width="20.43" height="8.75"/>
				<circle class="st3" cx="348.94" cy="59.84" r="7.59"/>
			</g>
			<g>
				
					<rect x="313.93" y="65.09" transform="matrix(-1.836970e-16 1 -1 -1.836970e-16 393.6051 -254.673)" class="st2" width="20.43" height="8.75"/>
				
					<ellipse transform="matrix(0.9871 -0.1598 0.1598 0.9871 -5.1988 52.693)" class="st3" cx="325.01" cy="58.67" rx="7.59" ry="7.59"/>
			</g>
			<g>
				
					<rect x="291.17" y="65.67" transform="matrix(-1.836970e-16 1 -1 -1.836970e-16 371.4286 -231.3294)" class="st2" width="20.43" height="8.75"/>
				<circle class="st3" cx="302.25" cy="59.25" r="7.59"/>
			</g>
			<g>
				
					<rect x="293.5" y="216.82" transform="matrix(6.123234e-17 -1 1 6.123234e-17 82.5138 524.913)" class="st2" width="20.43" height="8.75"/>
				
					<ellipse transform="matrix(0.9957 -0.0925 0.0925 0.9957 -20.1562 28.9992)" class="st3" cx="302.84" cy="232" rx="7.59" ry="7.59"/>
			</g>
			<g>
				
					<rect x="320.35" y="217.41" transform="matrix(6.123234e-17 -1 1 6.123234e-17 108.7753 552.3417)" class="st2" width="20.43" height="8.75"/>
				<circle class="st3" cx="329.68" cy="232.58" r="7.59"/>
			</g>
			<g>
				
					<rect x="345.44" y="217.99" transform="matrix(6.123234e-17 -1 1 6.123234e-17 133.2861 578.0197)" class="st2" width="20.43" height="8.75"/>
				<circle class="st3" cx="354.78" cy="233.16" r="7.59"/>
			</g>
			<g>
				
					<rect x="369.37" y="219.16" transform="matrix(6.123234e-17 -1 1 6.123234e-17 156.0462 603.1141)" class="st2" width="20.43" height="8.75"/>
				<circle class="st3" cx="378.7" cy="234.33" r="7.59"/>
			</g>
			<g>
				
					<rect x="392.13" y="218.57" transform="matrix(6.123234e-17 -1 1 6.123234e-17 179.3899 625.2906)" class="st2" width="20.43" height="8.75"/>
				
					<ellipse transform="matrix(0.9871 -0.1598 0.1598 0.9871 -32.1946 67.1602)" class="st3" cx="401.46" cy="233.75" rx="7.59" ry="7.59"/>
			</g>
		</g>
		<path class="st3" d="M389.31,176.95h-71.42c-6.6,0-12-5.4-12-12v-31.83c0-6.6,5.4-12,12-12h71.42c6.6,0,12,5.4,12,12v31.83
			C401.31,171.55,395.91,176.95,389.31,176.95z"/>
		<text transform="matrix(1 0 0 1 317.0527 161.292)" class="st4 st10 st11 st12">cpu</text>
		<polyline class="st13" points="309.44,113.51 352.08,113.51 352.08,103.36 		"/>
		<path class="st8" d="M352.2,105.39h-1.27c-2.16,0-3.93-1.77-3.93-3.93v-1.27c0-2.16,1.77-3.93,3.93-3.93h1.27
			c2.16,0,3.93,1.77,3.93,3.93v1.27C356.14,103.62,354.37,105.39,352.2,105.39z"/>
		<path class="st8" d="M308.05,118.08h-1.27c-2.16,0-3.93-1.77-3.93-3.93v-1.27c0-2.16,1.77-3.93,3.93-3.93h1.27
			c2.16,0,3.93,1.77,3.93,3.93v1.27C311.98,116.31,310.21,118.08,308.05,118.08z"/>
		<polyline class="st13" points="395.22,182.03 352.58,182.03 352.58,192.18 		"/>
		<path class="st8" d="M352.46,190.15h1.27c2.16,0,3.93,1.77,3.93,3.93v1.27c0,2.16-1.77,3.93-3.93,3.93h-1.27
			c-2.16,0-3.93-1.77-3.93-3.93v-1.27C348.52,191.92,350.29,190.15,352.46,190.15z"/>
		<path class="st8" d="M396.61,177.46h1.27c2.16,0,3.93,1.77,3.93,3.93v1.27c0,2.16-1.77,3.93-3.93,3.93h-1.27
			c-2.16,0-3.93-1.77-3.93-3.93v-1.27C392.68,179.23,394.45,177.46,396.61,177.46z"/>
	</g>
	<polyline class="st14" points="144.49,284.55 144.49,329.21 165.81,347.48 165.81,369.82 	"/>
	<path class="st15" d="M172.36,374.8c0,3.31-2.69,6-6,6c-3.31,0-6-2.69-6-6c0-3.31,2.69-6,6-6
		C169.68,368.8,172.36,371.49,172.36,374.8z"/>
	<polyline class="st16" points="150.58,402.3 151.6,363.73 128.25,339.36 128.25,313.99 	"/>
	<polyline class="st16" points="133.33,403.31 134.34,364.74 111,340.38 111,315 	"/>
	<polyline class="st16" points="115.06,403.31 116.07,364.74 92.72,340.38 92.72,315 	"/>
	<path class="st15" d="M135.82,316.94c0,3.31-2.69,6-6,6c-3.31,0-6-2.69-6-6c0-3.31,2.68-6,6-6
		C133.13,310.94,135.82,313.63,135.82,316.94z"/>
	<path class="st15" d="M99.28,306.79c0,3.31-2.69,6-6,6c-3.31,0-6-2.69-6-6c0-3.31,2.69-6,6-6
		C96.59,300.79,99.28,303.48,99.28,306.79z"/>
	<path class="st15" d="M117.55,310.85c0,3.31-2.69,6-6,6c-3.31,0-6-2.69-6-6s2.69-6,6-6C114.86,304.85,117.55,307.54,117.55,310.85z
		"/>
	<polyline class="st16" points="155.66,287.26 155.66,317.03 179.01,334.29 	"/>
	<path class="st15" d="M183.53,335.21c0,3.31-2.69,6-6,6c-3.31,0-6-2.69-6-6s2.69-6,6-6C180.84,329.21,183.53,331.9,183.53,335.21z"
		/>
	<g>
		<path class="st2" d="M296.59,417.07h111.98c6.6,0,12-5.4,12-12V293.1c0-6.6-5.4-12-12-12H296.59c-6.6,0-12,5.4-12,12v111.98
			C284.59,411.67,289.99,417.07,296.59,417.07z"/>
		<path class="st3" d="M306.52,407.15h92.13c6.6,0,12-5.4,12-12v-92.13c0-6.6-5.4-12-12-12h-92.13c-6.6,0-12,5.4-12,12v92.13
			C294.52,401.75,299.92,407.15,306.52,407.15z"/>
		<g>
			
				<rect x="417.65" y="358.71" transform="matrix(-1 -1.224647e-16 1.224647e-16 -1 855.7323 726.1795)" class="st2" width="20.43" height="8.75"/>
			
				<ellipse transform="matrix(0.9731 -0.2305 0.2305 0.9731 -72.0825 110.9138)" class="st5" cx="438.66" cy="363.97" rx="7.59" ry="7.59"/>
		</g>
		<g>
			
				<rect x="418.24" y="333.62" transform="matrix(-1 -1.224647e-16 1.224647e-16 -1 856.8994 675.9907)" class="st2" width="20.43" height="8.75"/>
			
				<ellipse transform="matrix(0.9731 -0.2305 0.2305 0.9731 -66.2824 110.3726)" class="st5" cx="439.25" cy="338.87" rx="7.59" ry="7.59"/>
		</g>
		<g>
			
				<rect x="419.4" y="309.69" transform="matrix(-1 -1.224647e-16 1.224647e-16 -1 859.2338 628.1363)" class="st2" width="20.43" height="8.75"/>
			
				<ellipse transform="matrix(0.298 -0.9546 0.9546 0.298 8.5362 641.4943)" class="st5" cx="440.41" cy="314.94" rx="7.59" ry="7.59"/>
		</g>
		<g>
			
				<rect x="418.82" y="286.93" transform="matrix(-1 -1.224647e-16 1.224647e-16 -1 858.0666 582.6162)" class="st2" width="20.43" height="8.75"/>
			<circle class="st5" cx="439.83" cy="292.18" r="7.59"/>
		</g>
		<g>
			<rect x="267.67" y="386.73" class="st2" width="20.43" height="8.75"/>
			<circle class="st5" cx="267.09" cy="391.98" r="7.59"/>
		</g>
		<g>
			<rect x="267.09" y="359.88" class="st2" width="20.43" height="8.75"/>
			
				<ellipse transform="matrix(0.9327 -0.3607 0.3607 0.9327 -113.7649 120.7111)" class="st5" cx="266.5" cy="365.13" rx="7.59" ry="7.59"/>
		</g>
		<g>
			<rect x="266.5" y="334.79" class="st2" width="20.43" height="8.75"/>
			
				<ellipse transform="matrix(0.8843 -0.4669 0.4669 0.8843 -128.0075 163.5147)" class="st5" cx="265.92" cy="340.04" rx="7.59" ry="7.59"/>
		</g>
		<g>
			<rect x="265.34" y="310.86" class="st2" width="20.43" height="8.75"/>
			<circle class="st5" cx="264.75" cy="316.11" r="7.59"/>
		</g>
		<g>
			<rect x="265.92" y="288.1" class="st2" width="20.43" height="8.75"/>
			<circle class="st5" cx="265.34" cy="293.35" r="7.59"/>
		</g>
		<g>
			
				<rect x="293.93" y="269.42" transform="matrix(-1.836970e-16 1 -1 -1.836970e-16 577.9453 -30.3445)" class="st2" width="20.43" height="8.75"/>
			<circle class="st5" cx="303.27" cy="263" r="7.59"/>
		</g>
		<g>
			
				<rect x="320.78" y="268.84" transform="matrix(-1.836970e-16 1 -1 -1.836970e-16 604.2068 -57.7732)" class="st2" width="20.43" height="8.75"/>
			
				<ellipse transform="matrix(0.9957 -0.0929 0.0929 0.9957 -22.948 31.7975)" class="st5" cx="330.11" cy="262.42" rx="7.59" ry="7.59"/>
		</g>
		<g>
			
				<rect x="345.87" y="268.26" transform="matrix(-1.836970e-16 1 -1 -1.836970e-16 628.7177 -83.4512)" class="st2" width="20.43" height="8.75"/>
			<circle class="st5" cx="355.21" cy="261.84" r="7.59"/>
		</g>
		<g>
			
				<rect x="369.8" y="267.09" transform="matrix(-1.836970e-16 1 -1 -1.836970e-16 651.4777 -108.5456)" class="st2" width="20.43" height="8.75"/>
			<circle class="st5" cx="379.14" cy="260.67" r="7.59"/>
		</g>
		<g>
			
				<rect x="392.56" y="267.67" transform="matrix(-1.836970e-16 1 -1 -1.836970e-16 674.8214 -130.7221)" class="st2" width="20.43" height="8.75"/>
			<path class="st5" d="M401.9,268.84c-4.19,0-7.59-3.4-7.59-7.59s3.4-7.59,7.59-7.59c4.19,0,7.59,3.4,7.59,7.59
				S406.09,268.84,401.9,268.84z"/>
		</g>
		<g>
			
				<rect x="390.22" y="418.82" transform="matrix(6.123234e-17 -1 1 6.123234e-17 -22.7623 823.637)" class="st2" width="20.43" height="8.75"/>
			
				<ellipse transform="matrix(0.7071 -0.7071 0.7071 0.7071 -189.3398 410.8854)" class="st5" cx="401.31" cy="434" rx="7.59" ry="7.59"/>
		</g>
		<g>
			
				<rect x="363.38" y="419.41" transform="matrix(6.123234e-17 -1 1 6.123234e-17 -50.191 797.3754)" class="st2" width="20.43" height="8.75"/>
			<circle class="st5" cx="374.47" cy="434.58" r="7.59"/>
		</g>
		<g>
			
				<rect x="338.28" y="419.99" transform="matrix(6.123234e-17 -1 1 6.123234e-17 -75.869 772.8646)" class="st2" width="20.43" height="8.75"/>
			<circle class="st5" cx="349.37" cy="435.16" r="7.59"/>
		</g>
		<g>
			
				<rect x="314.36" y="421.16" transform="matrix(6.123234e-17 -1 1 6.123234e-17 -100.9634 750.1045)" class="st2" width="20.43" height="8.75"/>
			<path class="st5" d="M325.45,428.74c4.19,0,7.59,3.4,7.59,7.59c0,4.19-3.4,7.59-7.59,7.59c-4.19,0-7.59-3.4-7.59-7.59
				C317.86,432.14,321.26,428.74,325.45,428.74z"/>
		</g>
		<g>
			
				<rect x="291.6" y="420.57" transform="matrix(6.123234e-17 -1 1 6.123234e-17 -123.1398 726.7609)" class="st2" width="20.43" height="8.75"/>
			<circle class="st5" cx="302.69" cy="435.75" r="7.59"/>
		</g>
	</g>
	<rect x="302.84" y="300.79" class="st2" width="97.45" height="97.45"/>
	<text transform="matrix(1 0 0 1 313.917 369.291)" class="st17 st10 st18 st12">MICRO</text>
	<polyline class="st19" points="402.32,306.88 372.99,306.88 372.99,341.58 355.4,341.58 	"/>
	<polyline class="st20" points="401.15,332.48 387.43,332.48 387.43,349.89 377.51,349.89 	"/>
	<polyline class="st20" points="401.44,323.2 385.1,323.2 385.1,311.53 	"/>
	<path class="st3" d="M360.7,341.9c0,2.52-2.05,4.57-4.57,4.57c-2.52,0-4.57-2.05-4.57-4.57c0-2.52,2.05-4.57,4.57-4.57
		C358.66,337.33,360.7,339.38,360.7,341.9z"/>
	<path class="st3" d="M379.99,349.01c0,1.4-1.14,2.54-2.54,2.54c-1.4,0-2.54-1.14-2.54-2.54c0-1.4,1.14-2.54,2.54-2.54
		C378.85,346.47,379.99,347.61,379.99,349.01z"/>
	<path class="st3" d="M389.13,312.97c0,1.68-1.36,3.05-3.05,3.05s-3.05-1.36-3.05-3.05c0-1.68,1.36-3.05,3.05-3.05
		S389.13,311.29,389.13,312.97z"/>
	<path class="st3" d="M341.42,336.32c0,1.68-1.36,3.05-3.05,3.05c-1.68,0-3.05-1.36-3.05-3.05s1.36-3.05,3.05-3.05
		C340.05,333.27,341.42,334.64,341.42,336.32z"/>
	<path class="st19" d="M299.8,317.03c1.02-1.02,38.57,0,38.57,0v18.27"/>
	<line class="st19" x1="300.81" y1="307.9" x2="352.58" y2="307.9"/>
	<path class="st3" d="M357.66,308.4c0,2.52-2.05,4.57-4.57,4.57c-2.52,0-4.57-2.05-4.57-4.57c0-2.52,2.05-4.57,4.57-4.57
		C355.61,303.84,357.66,305.88,357.66,308.4z"/>
	<polyline class="st19" points="301.83,330.23 301.83,330.23 320.1,330.23 320.1,348.5 332.28,348.5 	"/>
	<circle class="st3" cx="335.33" cy="347.48" r="4.06"/>
	<polyline class="st19" points="299.8,378.95 328.22,378.95 328.22,387.07 	"/>
	<path class="st3" d="M332.28,388.6c0,1.96-1.59,3.55-3.55,3.55c-1.96,0-3.55-1.59-3.55-3.55c0-1.96,1.59-3.55,3.55-3.55
		C330.69,385.04,332.28,386.63,332.28,388.6z"/>
	<polyline class="st19" points="400.8,391.13 384.05,391.13 384.05,376.92 363.75,376.92 	"/>
	<circle class="st3" cx="361.72" cy="377.94" r="4.06"/>
</g>
<g id="DESIGNED_BY_FREEPIK">
	<g>
		<g id="XMLID_29_">
			<g id="XMLID_48_">
				<path id="XMLID_56_" class="st0" d="M254.93,464.93c-0.43,0.44-0.8,0.93-1.11,1.45l-0.47-0.24c-0.07-0.3-0.35-0.5-0.66-0.47
					c-0.33,0.04-0.57,0.34-0.53,0.67c0.04,0.33,0.34,0.57,0.67,0.53c0.07-0.01,0.13-0.03,0.18-0.05l0.45,0.23
					c-0.25,0.55-0.43,1.14-0.54,1.74l0.75,0.13c0.23-1.31,0.85-2.51,1.79-3.47L254.93,464.93z"/>
				<path id="XMLID_55_" class="st0" d="M260.42,462.63c-0.17,0-0.34,0.01-0.51,0.02l-0.07-0.63c0.19-0.15,0.3-0.39,0.27-0.64
					c-0.05-0.39-0.4-0.67-0.8-0.63s-0.67,0.4-0.63,0.8c0.03,0.25,0.19,0.46,0.4,0.56l0.07,0.62c-0.71,0.12-1.4,0.33-2.06,0.65
					l0.33,0.68c0.93-0.45,1.94-0.67,3-0.67c0.5,0,0.99,0.05,1.48,0.16l0.16-0.74C261.52,462.68,260.97,462.63,260.42,462.63z"/>
				<path id="XMLID_54_" class="st0" d="M267.02,465.17c0.33-0.04,0.57-0.34,0.53-0.67c-0.04-0.33-0.34-0.57-0.67-0.53
					c-0.31,0.04-0.54,0.3-0.53,0.61l-0.42,0.36c-0.42-0.43-0.89-0.81-1.41-1.14l-0.4,0.64c1.13,0.71,2.02,1.73,2.56,2.93l0.69-0.31
					c-0.25-0.55-0.57-1.07-0.94-1.55l0.4-0.35C266.89,465.18,266.96,465.18,267.02,465.17z"/>
				<path id="XMLID_53_" class="st0" d="M259.87,472.83c-0.39,0.02-0.78,0.03-1.16,0.03c-0.88,0-1.73-0.06-2.48-0.18
					c-0.39-0.06-0.85-0.15-1.27-0.29c1.05,1.86,3.07,3.12,5.39,3.12c2.86,0,5.26-1.92,5.95-4.5c-0.68,0.45-1.51,0.83-2.46,1.12
					C262.67,472.51,261.29,472.75,259.87,472.83z"/>
				<path id="XMLID_49_" class="st0" d="M260.42,464.14c-3.35,0-6.08,2.67-6.08,5.94c0,0.43,0.05,0.85,0.14,1.26
					c0.67,0.48,2.71,0.89,5.35,0.73c2.88-0.17,5.3-0.96,6.67-2.16c-0.01-0.19-0.02-0.39-0.05-0.58
					C266.07,466.38,263.48,464.14,260.42,464.14z M258.26,470.66c-1.02,0-1.85-0.83-1.85-1.85c0-1.02,0.83-1.85,1.85-1.85
					c1.02,0,1.85,0.83,1.85,1.85C260.11,469.83,259.28,470.66,258.26,470.66z M263,469.75c-0.75,0-1.36-0.61-1.36-1.36
					s0.61-1.36,1.36-1.36c0.75,0,1.36,0.61,1.36,1.36S263.75,469.75,263,469.75z"/>
			</g>
			<path id="XMLID_46_" class="st0" d="M276.42,466.01c-0.29-0.12-0.81-0.31-1.38-0.24c-0.55,0.07-0.84,0.34-0.84,1.01v0.87h2.23
				v1.72h-2.23v5.45h-1.93v-5.45h-1.34v-1.72h1.34v-0.89c0-1.68,0.9-2.78,2.57-2.78c0.64,0,1.16,0.12,1.59,0.31L276.42,466.01z"/>
			<path id="XMLID_44_" class="st0" d="M281.13,469.34c-0.18-0.03-0.36-0.05-0.53-0.05c-0.9,0-1.51,0.55-1.51,1.61v3.91h-1.93v-7.17
				h1.87v0.78c0.45-0.67,1.14-0.98,2.02-0.98c0.41,0,0.85,0.13,1.09,0.34L281.13,469.34z"/>
			<path id="XMLID_41_" class="st0" d="M288.79,471.22c0,0.22-0.01,0.49-0.04,0.65h-5.08c0.21,1.04,0.93,1.49,1.84,1.49
				c0.62,0,1.3-0.25,1.81-0.69l1.13,1.24c-0.81,0.75-1.85,1.09-3.06,1.09c-2.2,0-3.72-1.5-3.72-3.75c0-2.26,1.48-3.8,3.63-3.8
				C287.37,467.45,288.79,468.98,288.79,471.22z M283.68,470.55h3.18c-0.18-0.92-0.73-1.44-1.56-1.44
				C284.38,469.12,283.85,469.67,283.68,470.55z"/>
			<path id="XMLID_38_" class="st0" d="M296.45,471.22c0,0.22-0.02,0.49-0.04,0.65h-5.08c0.21,1.04,0.93,1.49,1.84,1.49
				c0.62,0,1.3-0.25,1.81-0.69l1.13,1.24c-0.81,0.75-1.85,1.09-3.06,1.09c-2.2,0-3.72-1.5-3.72-3.75c0-2.26,1.48-3.8,3.63-3.8
				C295.03,467.45,296.44,468.98,296.45,471.22z M291.33,470.55h3.18c-0.18-0.92-0.73-1.44-1.56-1.44
				C292.04,469.12,291.5,469.67,291.33,470.55z"/>
			<path id="XMLID_35_" class="st0" d="M304.79,471.23c0,2.15-1.5,3.77-3.47,3.77c-0.96,0-1.64-0.38-2.11-0.93v3.71h-1.92v-10.13
				h1.89v0.79c0.47-0.58,1.15-0.98,2.14-0.98C303.3,467.45,304.79,469.07,304.79,471.23z M299.12,471.23c0,1.13,0.75,1.98,1.84,1.98
				c1.14,0,1.85-0.88,1.85-1.98c0-1.1-0.71-1.98-1.85-1.98C299.86,469.25,299.12,470.09,299.12,471.23z"/>
			<path id="XMLID_32_" class="st0" d="M307.9,465.3c0,0.7-0.54,1.23-1.24,1.23c-0.7,0-1.23-0.53-1.23-1.23
				c0-0.7,0.53-1.24,1.23-1.24C307.36,464.05,307.9,464.6,307.9,465.3z M307.64,474.82h-1.93v-7.17h1.93V474.82z"/>
			<path id="XMLID_30_" class="st0" d="M310.86,470.2l2.7-2.55h2.37l-3.48,3.38l3.5,3.8h-2.38l-2.72-2.9v2.9h-1.93v-10.66h1.93
				V470.2z"/>
		</g>
		<g>
			<path class="st0" d="M179.24,474.75v-1.05c-0.53,0.72-1.39,1.23-2.39,1.23c-1.85,0-3.15-1.41-3.15-3.71
				c0-2.26,1.29-3.72,3.15-3.72c0.95,0,1.82,0.47,2.39,1.25v-3.76h1.1v9.77H179.24z M179.24,472.83v-3.21
				c-0.4-0.62-1.24-1.14-2.12-1.14c-1.42,0-2.27,1.17-2.27,2.74c0,1.57,0.85,2.72,2.27,2.72C178,473.95,178.85,473.45,179.24,472.83
				z"/>
			<path class="st0" d="M181.76,471.21c0-2.05,1.46-3.71,3.49-3.71c2.14,0,3.4,1.67,3.4,3.79v0.28h-5.73
				c0.09,1.33,1.03,2.45,2.55,2.45c0.81,0,1.63-0.32,2.18-0.89l0.53,0.72c-0.7,0.7-1.65,1.08-2.81,1.08
				C183.27,474.93,181.76,473.42,181.76,471.21z M185.23,468.41c-1.51,0-2.26,1.27-2.31,2.36h4.64
				C187.55,469.71,186.84,468.41,185.23,468.41z"/>
			<path class="st0" d="M189.44,473.81l0.57-0.79c0.47,0.54,1.36,1.01,2.33,1.01c1.08,0,1.67-0.51,1.67-1.22
				c0-1.71-4.38-0.66-4.38-3.28c0-1.1,0.95-2.04,2.64-2.04c1.2,0,2.05,0.45,2.62,1.03l-0.51,0.76c-0.42-0.51-1.2-0.89-2.11-0.89
				c-0.97,0-1.57,0.48-1.57,1.11c0,1.55,4.38,0.53,4.38,3.28c0,1.19-0.95,2.14-2.78,2.14C191.14,474.93,190.15,474.58,189.44,473.81
				z"/>
			<path class="st0" d="M196.31,465.93c0-0.41,0.34-0.75,0.73-0.75c0.41,0,0.75,0.34,0.75,0.75c0,0.41-0.34,0.73-0.75,0.73
				C196.64,466.67,196.31,466.34,196.31,465.93z M196.5,474.75v-7.07h1.1v7.07H196.5z"/>
			<path class="st0" d="M199.41,476.57l0.56-0.82c0.59,0.7,1.29,0.97,2.3,0.97c1.17,0,2.27-0.57,2.27-2.12v-1.01
				c-0.51,0.72-1.38,1.26-2.37,1.26c-1.85,0-3.15-1.38-3.15-3.66c0-2.27,1.29-3.68,3.15-3.68c0.95,0,1.8,0.47,2.37,1.25v-1.07h1.1
				v6.87c0,2.34-1.64,3.08-3.37,3.08C201.07,477.62,200.25,477.39,199.41,476.57z M204.54,472.72v-3.09
				c-0.38-0.62-1.23-1.14-2.11-1.14c-1.42,0-2.27,1.13-2.27,2.7c0,1.55,0.85,2.7,2.27,2.7
				C203.31,473.87,204.16,473.33,204.54,472.72z"/>
			<path class="st0" d="M212.24,474.75v-4.63c0-1.24-0.63-1.64-1.58-1.64c-0.86,0-1.68,0.53-2.09,1.1v5.17h-1.1v-7.07h1.1v1.03
				c0.5-0.59,1.46-1.2,2.52-1.2c1.48,0,2.26,0.75,2.26,2.29v4.97H212.24z"/>
			<path class="st0" d="M214.76,471.21c0-2.05,1.46-3.71,3.49-3.71c2.14,0,3.4,1.67,3.4,3.79v0.28h-5.73
				c0.09,1.33,1.03,2.45,2.55,2.45c0.81,0,1.63-0.32,2.18-0.89l0.53,0.72c-0.7,0.7-1.66,1.08-2.81,1.08
				C216.27,474.93,214.76,473.42,214.76,471.21z M218.23,468.41c-1.51,0-2.26,1.27-2.31,2.36h4.64
				C220.55,469.71,219.84,468.41,218.23,468.41z"/>
			<path class="st0" d="M228.18,474.75v-1.05c-0.53,0.72-1.39,1.23-2.39,1.23c-1.85,0-3.15-1.41-3.15-3.71
				c0-2.26,1.29-3.72,3.15-3.72c0.95,0,1.82,0.47,2.39,1.25v-3.76h1.1v9.77H228.18z M228.18,472.83v-3.21
				c-0.4-0.62-1.25-1.14-2.12-1.14c-1.42,0-2.27,1.17-2.27,2.74c0,1.57,0.85,2.72,2.27,2.72
				C226.93,473.95,227.78,473.45,228.18,472.83z"/>
			<path class="st0" d="M234.52,474.75v-9.77h1.1v3.76c0.57-0.78,1.42-1.25,2.39-1.25c1.85,0,3.15,1.46,3.15,3.72
				c0,2.3-1.3,3.71-3.15,3.71c-1,0-1.86-0.51-2.39-1.23v1.05H234.52z M237.73,473.95c1.44,0,2.29-1.16,2.29-2.72
				c0-1.57-0.85-2.74-2.29-2.74c-0.86,0-1.73,0.53-2.11,1.14v3.21C236,473.45,236.87,473.95,237.73,473.95z"/>
			<path class="st0" d="M242.36,476.52c0.16,0.07,0.43,0.12,0.6,0.12c0.48,0,0.81-0.16,1.05-0.75l0.47-1.07l-2.96-7.15h1.19
				l2.36,5.8l2.34-5.8h1.2l-3.54,8.51c-0.42,1.03-1.14,1.42-2.08,1.44c-0.23,0-0.6-0.04-0.81-0.1L242.36,476.52z"/>
		</g>
	</g>
</g>
</svg>
